# xmcd
#
# Track frame offsets:
# 150
# 14227
# 31243
# 51860
# 64932
# 77489
# 90661
# 106752
# 125069
# 137595
# 155683
#
# Disc length: 2275 seconds
#
# Revision: 0
# Processed by: cddbd v1.5.1PL0 Copyright (c) Steve Scherf et al.
# Submitted via: Axialis_AX_CDPlayer 2.6
#
DISCID=9008e10b
DTITLE=Sawyer Brown - The Boys Are Back
DYEAR=1900
DGENRE=
TTITLE0=Puttin´ The Dark Back Into The Night
TTITLE1=Rosie Knows
TTITLE2=I Did It For Love
TTITLE3=The Race Is On
TTITLE4=Hey, Hey
TTITLE5=Godd While It Lasted
TTITLE6=Locomotive
TTITLE7=The Heartland
TTITLE8=I'm Gonna Miss You
TTITLE9=Gettin' Tough
TTITLE10=Passin' Train
EXTD=
EXTT0=
EXTT1=
EXTT2=
EXTT3=
EXTT4=
EXTT5=
EXTT6=
EXTT7=
EXTT8=
EXTT9=
EXTT10=
PLAYORDER=
